<svg width="147" height="46" xmlns="http://www.w3.org/2000/svg">
    <g fill="none" fill-rule="evenodd">
        <rect fill="#000" opacity=".95" width="147" height="46" rx="8"/>
        <path d="M50.237 17.294V9.49h2.318c2.318 0 3.596 1.208 3.596 3.681v.233c0 2.427-1.107 3.89-3.573 3.89h-2.341zm1.005-.883H52.6c1.702 0 2.467-.859 2.467-2.856v-.384c0-2.113-.948-2.786-2.615-2.786h-1.21v6.026zm8.034.987c-1.633 0-2.58-1.068-2.58-2.868v-.197c0-1.812 1.039-2.927 2.592-2.927 1.621 0 2.592 1.08 2.592 2.892v.186c0 1.811-1.05 2.914-2.604 2.914zm.023-.813c.994 0 1.564-.708 1.564-1.997v-.313c0-1.556-.719-2.056-1.598-2.056-.994 0-1.564.72-1.564 2.01v.324c0 1.556.719 2.032 1.598 2.032zm4.472.709-1.61-5.771h1.04l1.118 4.505h.035l1.313-4.505h.845l1.324 4.505h.046l1.107-4.505h.937l-1.61 5.77h-.97l-1.268-4.25h-.046l-1.267 4.25h-.994zm6.802 0v-5.771h.925v.499h.057a3.431 3.431 0 0 1 1.907-.616c1.119 0 1.644.476 1.644 1.591v4.297h-.96v-4.088c0-.662-.216-.94-1.107-.94-.502 0-1.085.185-1.496.383v4.645h-.97zm5.694 0V8.979h.982v8.315h-.982zm4.415.104c-1.633 0-2.58-1.068-2.58-2.868v-.197c0-1.812 1.038-2.927 2.591-2.927 1.621 0 2.592 1.08 2.592 2.892v.186c0 1.811-1.05 2.914-2.603 2.914zm.022-.813c.994 0 1.565-.708 1.565-1.997v-.313c0-1.556-.72-2.056-1.599-2.056-.993 0-1.564.72-1.564 2.01v.324c0 1.556.72 2.032 1.598 2.032zm4.78.813c-1.015 0-1.757-.522-1.757-1.637 0-.999.639-1.544 1.712-1.684l1.507-.186v-.534c0-.882-.376-1.091-1.393-1.091-.56 0-1.016.093-1.358.162v-.708a4.642 4.642 0 0 1 1.735-.314c1.256 0 1.976.546 1.976 1.707v4.18h-.777l-.103-.487h-.057c-.285.325-.73.592-1.484.592zm.24-.766c.503 0 .971-.163 1.222-.395v-1.59l-1.256.127c-.65.07-.959.337-.959.964 0 .604.4.894.994.894zm5.33.766c-1.086 0-2.342-.685-2.342-2.81v-.162c0-2.102 1.074-3.02 2.524-3.02.696 0 1.153.186 1.45.36V8.98h.97v8.315h-.822l-.09-.465h-.058c-.331.337-.88.57-1.633.57zm.319-.813a2.06 2.06 0 0 0 1.313-.452V12.59c-.24-.198-.754-.337-1.325-.337-1.039 0-1.632.534-1.632 2.044v.255c0 1.556.662 2.032 1.644 2.032zm8.305.813c-1.633 0-2.58-1.068-2.58-2.868v-.197c0-1.812 1.038-2.927 2.591-2.927 1.622 0 2.592 1.08 2.592 2.892v.186c0 1.811-1.05 2.914-2.603 2.914zm.023-.813c.993 0 1.564-.708 1.564-1.997v-.313c0-1.556-.72-2.056-1.599-2.056-.993 0-1.564.72-1.564 2.01v.324c0 1.556.72 2.032 1.599 2.032zm3.387.709v-5.771h.925v.499h.057a3.431 3.431 0 0 1 1.907-.616c1.119 0 1.644.476 1.644 1.591v4.297h-.96v-4.088c0-.662-.216-.94-1.107-.94-.502 0-1.084.185-1.495.383v4.645h-.971zM49.536 34.446l4.52-12.613h2.277l4.411 12.613h-2.296l-1.12-3.2h-4.61l-1.121 3.2h-2.061zm5.441-9.928-1.735 5.037h3.525l-1.735-5.037h-.055zm6.924 12.668V24.977h2.006v.81h.073c.56-.57 1.518-.975 2.693-.975 1.935 0 3.688 1.14 3.688 4.615v.239c0 3.548-1.68 4.946-4.212 4.946-1.03 0-1.717-.276-2.17-.534v3.108h-2.078zm3.959-4.174c1.482 0 2.332-.772 2.332-3.07v-.387c0-2.335-.795-3.015-2.26-3.015-.886 0-1.59.294-1.952.552v5.368c.361.295 1.066.552 1.88.552zm6.091 4.174V24.977h2.007v.81h.073c.56-.57 1.518-.975 2.693-.975 1.935 0 3.688 1.14 3.688 4.615v.239c0 3.548-1.681 4.946-4.212 4.946-1.03 0-1.717-.276-2.17-.534v3.108h-2.079zm3.96-4.174c1.482 0 2.332-.772 2.332-3.07v-.387c0-2.335-.796-3.015-2.26-3.015-.886 0-1.59.294-1.952.552v5.368c.361.295 1.066.552 1.88.552zm13.647 1.655c-1.627 0-2.856-.35-3.706-.81v-1.783c.995.442 2.17.772 3.526.772 1.663 0 2.368-.698 2.368-1.838 0-1.048-.452-1.453-1.808-1.876l-1.175-.33c-1.754-.497-2.82-1.453-2.82-3.586s1.356-3.585 4.158-3.585c1.627 0 2.513.313 3.2.68v1.765c-.778-.33-1.79-.625-3.164-.625-1.302 0-2.025.552-2.025 1.563 0 .993.362 1.416 1.591 1.765l1.157.368c1.953.57 3.128 1.397 3.128 3.64 0 2.39-1.429 3.88-4.43 3.88zm9.238-.11c-1.61 0-2.64-.663-2.64-2.446v-5.479h-1.301v-1.655h1.301v-2.224H98.2v2.224h2.224v1.655h-2.224v5.185c0 .79.29 1.085 1.266 1.085.361 0 .74-.056 1.066-.147v1.415c-.361.184-.868.386-1.735.386zm7.14.055c-2.838 0-4.411-1.747-4.411-4.707v-.294c0-3.034 1.808-4.8 4.429-4.8 2.784 0 4.393 1.729 4.393 4.744v.258c0 3.052-1.808 4.799-4.411 4.799zm.036-1.6c1.392 0 2.206-.975 2.206-3.015v-.46c0-2.464-.995-3.126-2.26-3.126-1.428 0-2.26 1.012-2.26 3.052v.442c0 2.445 1.012 3.107 2.314 3.107zm5.91 1.434v-9.469h2.008v1.103h.072c.506-.68 1.464-1.176 2.44-1.176.254 0 .489.018.58.055v1.875a5.467 5.467 0 0 0-.76-.055c-.832 0-1.663.24-2.26.625v7.042h-2.08zm10.522.166c-3.092 0-4.61-1.784-4.61-4.78v-.258c0-3.181 1.898-4.744 4.266-4.744 2.748 0 3.942 1.563 3.942 4.578v.883h-6.075c.127 1.967 1.12 2.666 2.893 2.666 1.193 0 2.06-.276 2.874-.699v1.471c-.633.423-1.717.883-3.29.883zm-.38-8.219c-.958 0-1.952.515-2.097 2.445h3.96c0-1.783-.652-2.445-1.863-2.445z" fill="#E2E3E4" fill-rule="nonzero"/>
        <path d="M35.92 28.327c-.065.177-.128.366-.201.552-.603 1.56-1.518 2.945-2.628 4.215a5.58 5.58 0 0 1-.722.678c-.51.413-1.096.662-1.774.685a3.702 3.702 0 0 1-1.47-.257c-.342-.133-.678-.282-1.024-.402-1.124-.39-2.242-.34-3.347.078-.399.151-.792.318-1.198.448-.47.151-.96.213-1.457.123-.434-.078-.813-.27-1.166-.52-.437-.31-.805-.687-1.148-1.086-1.627-1.896-2.719-4.04-3.246-6.443-.227-1.032-.336-2.074-.27-3.13.079-1.265.387-2.47 1.094-3.556.888-1.365 2.14-2.26 3.788-2.628.991-.223 1.955-.132 2.9.216.497.182.996.362 1.495.54.46.166.918.166 1.379-.002.51-.186 1.02-.372 1.531-.553.525-.183 1.058-.333 1.614-.375a6.325 6.325 0 0 1 2.436.292c1.12.359 2.032.993 2.72 1.916.019.026.04.054.053.074-1.736 1.157-2.725 2.685-2.581 4.755.145 2.07 1.31 3.471 3.222 4.38zM25.731 15.913a4.673 4.673 0 0 0 1.565-.238c2.287-.747 3.483-2.739 3.447-4.262-.003-.122-.013-.245-.02-.387-.234.029-.449.042-.655.085-1.67.337-2.955 1.104-3.8 2.346-.495.727-.77 1.499-.685 2.343.006.09.045.112.148.113z" fill="#FFF" fill-rule="nonzero"/>
    </g>
</svg>
