<?xml version="1.0" encoding="UTF-8"?>
<svg width="22px" height="22px" viewBox="0 0 22 22" version="1.1" xmlns="http://www.w3.org/2000/svg" xmlns:xlink="http://www.w3.org/1999/xlink">
    <title>Add / Rectangular Copy 68</title>
    <defs>
        <path d="M17.1241105,0 C19.3072155,0 21.0833333,1.75944141 21.0833333,3.92210156 C21.0833333,6.08476172 19.3072155,7.84420312 17.1241105,7.84420312 C15.9917243,7.84420312 14.9688515,7.37080641 14.2465551,6.61330486 L8.65921307,9.84290848 C8.77347755,10.2088022 8.83502567,10.597416 8.83502567,11 C8.83502567,11.4022206 8.77358859,11.7904963 8.65952232,12.1561008 L14.2494311,15.3837249 C14.9715722,14.6279768 15.9932407,14.1558398 17.1241105,14.1558398 C19.3072155,14.1558398 21.0833333,15.9152812 21.0833333,18.0778984 C21.0833333,20.2405586 19.3072155,22 17.1241105,22 C14.9410054,22 13.164931,20.2406016 13.164931,18.0779414 C13.164931,17.673896 13.2269258,17.2839249 13.3419868,16.9168721 L7.75435421,13.6902038 C7.03200477,14.4482884 6.0087303,14.9221016 4.87584617,14.9221016 C2.69274111,14.9221016 0.916666667,13.1626602 0.916666667,11 C0.916666667,8.83733984 2.69278449,7.07789844 4.87584617,7.07789844 C6.00823233,7.07789844 7.03110517,7.55129516 7.75340148,8.3087967 L13.3404343,5.07820234 C13.226368,4.71259787 13.164931,4.3243222 13.164931,3.92210156 C13.164931,1.75944141 14.9410488,0 17.1241105,0 Z M17.1241105,15.9332422 C15.9303448,15.9332422 14.9591361,16.8953125 14.9591361,18.0779414 C14.9591361,19.2605703 15.9303015,20.2226406 17.1241105,20.2226406 C18.3179195,20.2226406 19.2891282,19.2605273 19.2891282,18.0779414 C19.2891282,16.8953125 18.3179195,15.9332422 17.1241105,15.9332422 Z M4.87584617,8.85530078 C3.68208055,8.85530078 2.71087184,9.81741406 2.71087184,11 C2.71087184,12.1825859 3.68208055,13.1446992 4.87584617,13.1446992 C6.06961179,13.1446992 7.0408205,12.1826289 7.0408205,11 C7.0408205,9.81741406 6.06961179,8.85530078 4.87584617,8.85530078 Z M17.1241105,1.77740234 C15.9303448,1.77740234 14.9591361,2.73951562 14.9591361,3.92210156 C14.9591361,5.1046875 15.9303015,6.06680078 17.1241105,6.06680078 C18.3179195,6.06680078 19.2891282,5.1046875 19.2891282,3.92210156 C19.2891282,2.73951562 18.3179195,1.77740234 17.1241105,1.77740234 Z" id="path-1"></path>
        <rect id="path-3" x="0" y="0" width="22" height="22"></rect>
    </defs>
    <g id="Page-1" stroke="none" stroke-width="1" fill="none" fill-rule="evenodd">
        <g id="Artboard" transform="translate(-10.000000, -10.000000)">
            <g id="Add-/-Rectangular-Copy-68" transform="translate(10.000000, 10.000000)">
                <mask id="mask-2" fill="white">
                    <use xlink:href="#path-1"></use>
                </mask>
                <use id="Combined-Shape" fill="#FFFFFF" fill-rule="nonzero" xlink:href="#path-1"></use>
                <g id="Group" mask="url(#mask-2)">
                    <g id="â†³ðŸŽ¨Color">
                        <mask id="mask-4" fill="white">
                            <use xlink:href="#path-3"></use>
                        </mask>
                        <use id="Rectangular" fill="#FFFFFF" xlink:href="#path-3"></use>
                        <g id="Group" mask="url(#mask-4)" opacity="0.100000001">
                            <g id="â†³âš™ï¸State">
                                <rect id="Rectangular" x="0" y="0" width="22" height="22"></rect>
                            </g>
                        </g>
                    </g>
                </g>
            </g>
        </g>
    </g>
</svg>